<svg width="42" height="48" viewBox="0 0 42 48" fill="none" xmlns="http://www.w3.org/2000/svg">
<path d="M12.5518 0.471996L11.2718 31.128H1.99175L0.711751 0.471996H12.5518ZM6.79175 47.512C4.87175 47.512 3.29308 46.9573 2.05575 45.848C0.861084 44.696 0.263751 43.288 0.263751 41.624C0.263751 39.9173 0.861084 38.488 2.05575 37.336C3.29308 36.184 4.87175 35.608 6.79175 35.608C8.66908 35.608 10.2051 36.184 11.3998 37.336C12.6371 38.488 13.2558 39.9173 13.2558 41.624C13.2558 43.288 12.6371 44.696 11.3998 45.848C10.2051 46.9573 8.66908 47.512 6.79175 47.512ZM28.2063 38.744L15.2143 24.6L28.2063 10.456H41.9663L28.9103 24.6L41.9663 38.744H28.2063Z" fill="#FFFFFE"/>
</svg>
